<svg width="32" height="32" viewBox="0 0 32 32" fill="none" xmlns="http://www.w3.org/2000/svg">
<path d="M14.5459 12.3632V13.8178H13.0913V15.9996H14.5459V22.545H17.4549V15.9996H19.3895L19.6367 13.8178H17.4549V12.545C17.4549 11.956 17.5131 11.6432 18.4222 11.6432H19.6367V9.4541H17.6877C15.3604 9.45416 14.5459 10.545 14.5459 12.3632Z" fill="black" fill-opacity="0.54"/>
<path d="M16 0C7.16344 0 0 7.16344 0 16C0 24.8366 7.16344 32 16 32C24.8366 32 32 24.8366 32 16C32 7.16344 24.8366 0 16 0ZM16 30.5454C7.96675 30.5454 1.45456 24.0332 1.45456 16C1.45456 7.96675 7.96675 1.45456 16 1.45456C24.0332 1.45456 30.5454 7.96675 30.5454 16C30.5454 24.0332 24.0332 30.5454 16 30.5454Z" fill="black" fill-opacity="0.54"/>
</svg>
