<svg width="96" height="96" viewBox="0 0 96 96" fill="none" xmlns="http://www.w3.org/2000/svg">
<path d="M48 0C21.4903 0 0 21.4903 0 48C0 74.5097 21.4903 96 48 96C74.5097 96 96 74.5097 96 48C96 21.4903 74.5097 0 48 0ZM48 91.6363C23.9002 91.6363 4.36369 72.0997 4.36369 48C4.36369 23.9002 23.9002 4.36369 48 4.36369C72.0997 4.36369 91.6363 23.9002 91.6363 48C91.6363 72.0997 72.0997 91.6363 48 91.6363Z" fill="black" fill-opacity="0.54"/>
<path d="M67.8805 30.115H62.7703V37.7803H55.1052V42.8903H62.7703V50.5554H67.8805V42.8903H75.5456V37.7803H67.8805V30.115Z" fill="black" fill-opacity="0.54"/>
<path d="M47.6446 50.0694V50.0949C46.5753 49.3602 45.6989 48.3785 45.0896 47.2332C45.0896 46.4667 45.0896 46.109 46.9037 44.6782C49.1331 42.9877 50.4692 40.3724 50.532 37.5752C50.5803 35.4871 49.9628 33.438 48.769 31.7242H49.74L55.1055 27.5596H40.4906C34.8138 27.4456 30.026 31.7635 29.555 37.422C29.4265 42.6979 33.5993 47.0793 38.8754 47.2077C38.8772 47.2077 38.8792 47.2077 38.8809 47.208C38.8403 47.5902 38.8403 47.9756 38.8809 48.3576C38.8858 49.1382 39.0693 49.9074 39.4176 50.6061C32.5702 50.5549 27 55.0775 27 60.3152C27 65.0165 32.3655 68.4403 39.7753 68.4403C47.7726 68.4403 52.0905 63.3302 52.0905 58.7312C52.3118 55.2466 50.6049 51.9209 47.6446 50.0694ZM35.687 37.2687V37.3199C35.3757 35.6195 35.7726 33.866 36.7858 32.4653C37.3116 31.8375 38.0874 31.473 38.9064 31.4689V31.4943C41.4614 31.4943 43.7098 34.4838 44.1444 37.9586C44.4843 39.6728 44.1156 41.4518 43.1222 42.8898C42.5871 43.5345 41.7881 43.9009 40.9504 43.8862C38.523 43.7587 36.1213 40.7692 35.687 37.2687ZM39.775 64.3778C36.5034 64.7041 33.5866 62.3164 33.2603 59.0448C33.2601 59.0423 33.2598 59.0401 33.2596 59.0377C33.2596 56.2783 36.6068 53.9276 40.4138 53.9276C41.2205 53.9364 42.0215 54.0655 42.79 54.3107L43.5565 54.8474C45.4985 56.2272 46.5204 57.0192 46.8271 58.2712C46.8653 58.6023 46.8653 58.9365 46.8271 59.2676C47.0058 62.6403 44.553 64.3778 39.775 64.3778Z" fill="black" fill-opacity="0.54"/>
</svg>
