<svg width="32" height="32" viewBox="0 0 32 32" fill="none" xmlns="http://www.w3.org/2000/svg">
<path d="M16 0C7.16344 0 0 7.16344 0 16C0 24.8366 7.16344 32 16 32C24.8366 32 32 24.8366 32 16C32 7.16344 24.8366 0 16 0ZM16 30.5454C7.96675 30.5454 1.45456 24.0332 1.45456 16C1.45456 7.96675 7.96675 1.45456 16 1.45456C24.0332 1.45456 30.5454 7.96675 30.5454 16C30.5454 24.0332 24.0332 30.5454 16 30.5454Z" fill="black" fill-opacity="0.54"/>
<path d="M22.6266 10.0381H20.9232V12.5932H18.3682V14.2965H20.9232V16.8515H22.6266V14.2965H25.1816V12.5932H22.6266V10.0381Z" fill="black" fill-opacity="0.54"/>
<path d="M15.8815 16.6896V16.6981C15.5251 16.4532 15.233 16.1259 15.0299 15.7442C15.0299 15.4886 15.0299 15.3694 15.6346 14.8925C16.3777 14.329 16.8231 13.4572 16.844 12.5248C16.8601 11.8288 16.6543 11.1458 16.2563 10.5745H16.58L18.3685 9.18628H13.4969C11.6046 9.1483 10.0087 10.5876 9.85166 12.4737C9.80884 14.2324 11.1998 15.6929 12.9585 15.7357C12.9591 15.7357 12.9597 15.7357 12.9603 15.7357C12.9468 15.8632 12.9468 15.9916 12.9603 16.119C12.9619 16.3792 13.0231 16.6356 13.1392 16.8684C10.8567 16.8514 9 18.3589 9 20.1048C9 21.6719 10.7885 22.8132 13.2584 22.8132C15.9242 22.8132 17.3635 21.1098 17.3635 19.5768C17.4373 18.4153 16.8683 17.3067 15.8815 16.6896ZM11.8957 12.4227V12.4397C11.7919 11.8729 11.9242 11.2884 12.2619 10.8215C12.4372 10.6123 12.6958 10.4908 12.9688 10.4894V10.4979C13.8205 10.4979 14.5699 11.4944 14.7148 12.6526C14.8281 13.224 14.7052 13.817 14.3741 14.2964C14.1957 14.5112 13.9294 14.6334 13.6501 14.6285C12.841 14.586 12.0404 13.5895 11.8957 12.4227ZM13.2583 21.459C12.1678 21.5678 11.1955 20.7719 11.0868 19.6813C11.0867 19.6805 11.0866 19.6798 11.0865 19.679C11.0865 18.7592 12.2023 17.9756 13.4713 17.9756C13.7402 17.9785 14.0072 18.0216 14.2633 18.1033L14.5189 18.2822C15.1662 18.7421 15.5068 19.0062 15.609 19.4235C15.6218 19.5339 15.6218 19.6453 15.609 19.7556C15.6686 20.8799 14.851 21.459 13.2583 21.459Z" fill="black" fill-opacity="0.54"/>
</svg>
