<svg width="24" height="24" viewBox="0 0 24 24" fill="none" xmlns="http://www.w3.org/2000/svg">
<path d="M12 0C5.37258 0 0 5.37258 0 12C0 18.6274 5.37258 24 12 24C18.6274 24 24 18.6274 24 12C24 5.37258 18.6274 0 12 0ZM12 22.9091C5.97506 22.9091 1.09092 18.0249 1.09092 12C1.09092 5.97506 5.97506 1.09092 12 1.09092C18.0249 1.09092 22.9091 5.97506 22.9091 12C22.9091 18.0249 18.0249 22.9091 12 22.9091Z" fill="black" fill-opacity="0.54"/>
<path d="M16.125 8H14.875V9.87505H13V11.125H14.875V13H16.125V11.125H18V9.87505H16.125V8Z" fill="black" fill-opacity="0.54"/>
<path d="M11.1418 12.5065V12.5127C10.8754 12.333 10.6572 12.0929 10.5054 11.8127C10.5054 11.6252 10.5054 11.5377 10.9573 11.1878C11.5125 10.7743 11.8453 10.1346 11.8609 9.45038C11.8729 8.93961 11.7192 8.43841 11.4218 8.01922H11.6637L13 7.00054H9.36C7.94611 6.97266 6.75365 8.02883 6.63634 9.41289C6.60435 10.7034 7.64363 11.7751 8.95772 11.8065C8.95816 11.8065 8.95865 11.8065 8.95909 11.8065C8.94897 11.9001 8.94897 11.9943 8.95909 12.0878C8.96029 12.2787 9.00601 12.4668 9.09274 12.6377C7.38731 12.6252 6 13.7314 6 15.0126C6 16.1625 7.33634 17 9.18183 17C11.1737 17 12.2491 15.7501 12.2491 14.6251C12.3042 13.7728 11.8791 12.9593 11.1418 12.5065ZM8.1636 9.3754V9.38791C8.08605 8.972 8.18493 8.54309 8.43726 8.20048C8.56823 8.04693 8.76144 7.95778 8.96543 7.95676V7.96299C9.60177 7.96299 10.1618 8.69422 10.27 9.54415C10.3547 9.96345 10.2628 10.3986 10.0154 10.7503C9.88216 10.908 9.68315 10.9976 9.47452 10.9941C8.86995 10.9628 8.27177 10.2316 8.1636 9.3754ZM9.18177 16.0063C8.36693 16.0861 7.64046 15.5021 7.5592 14.7018C7.55914 14.7012 7.55909 14.7007 7.55903 14.7001C7.55903 14.0252 8.39269 13.4502 9.34086 13.4502C9.54178 13.4523 9.74128 13.4839 9.93269 13.5439L10.1236 13.6752C10.6073 14.0127 10.8618 14.2064 10.9382 14.5126C10.9477 14.5936 10.9477 14.6754 10.9382 14.7563C10.9827 15.5813 10.3718 16.0063 9.18177 16.0063Z" fill="black" fill-opacity="0.54"/>
</svg>
