<svg width="96" height="96" viewBox="0 0 96 96" fill="none" xmlns="http://www.w3.org/2000/svg">
<path d="M70.7994 31.2002C69.038 32.2438 67.1126 32.9814 65.1048 33.3819C63.3986 31.5924 61.032 30.5826 58.5594 30.5891C53.6887 30.5526 49.6976 34.4462 49.614 39.3163C49.616 39.9924 49.6965 40.6661 49.854 41.3237C42.6806 40.9851 35.981 37.6432 31.3957 32.1165C30.6114 33.4382 30.1899 34.9434 30.174 36.4802C30.1742 39.4432 31.6777 42.2036 34.1668 43.8111C32.7453 43.7647 31.3548 43.3836 30.1085 42.6982C30.1085 42.6982 30.1085 42.6982 30.1085 42.8074C30.0943 47.0631 33.1082 50.7276 37.2868 51.5346C35.9696 51.8857 34.5903 51.9379 33.2505 51.6874C34.4552 55.2922 37.8063 57.7421 41.6068 57.7965C38.4429 60.2569 34.5528 61.5996 30.545 61.6147C29.8158 61.614 29.0872 61.5703 28.3633 61.4839C32.4692 64.0811 37.2285 65.4583 42.087 65.4548C55.9419 65.7079 67.3788 54.6812 67.632 40.8262C67.6346 40.6794 67.6361 40.5326 67.6361 40.3856C67.6361 40.0074 67.6361 39.6292 67.6361 39.2511C69.3461 37.9978 70.823 36.4545 71.9998 34.6911C70.3618 35.4082 68.6267 35.8787 66.8507 36.0874C68.7183 34.9941 70.1227 33.2561 70.7994 31.2002Z" fill="black" fill-opacity="0.54"/>
<path d="M48 0C21.4903 0 0 21.4903 0 48C0 74.5097 21.4903 96 48 96C74.5097 96 96 74.5097 96 48C96 21.4903 74.5097 0 48 0ZM48 91.6363C23.9002 91.6363 4.36369 72.0997 4.36369 48C4.36369 23.9002 23.9002 4.36369 48 4.36369C72.0997 4.36369 91.6363 23.9002 91.6363 48C91.6363 72.0997 72.0997 91.6363 48 91.6363Z" fill="black" fill-opacity="0.54"/>
</svg>
