<svg width="32" height="32" viewBox="0 0 32 32" fill="none" xmlns="http://www.w3.org/2000/svg">
<path d="M23.6 10.4001C23.0128 10.7479 22.371 10.9938 21.7018 11.1273C21.133 10.5308 20.3442 10.1942 19.52 10.1964C17.8964 10.1842 16.566 11.4821 16.5382 13.1054C16.5388 13.3308 16.5657 13.5554 16.6182 13.7746C14.227 13.6617 11.9938 12.5477 10.4654 10.7055C10.204 11.1461 10.0635 11.6478 10.0582 12.1601C10.0582 13.1477 10.5594 14.0679 11.3891 14.6037C10.9153 14.5882 10.4518 14.4612 10.0363 14.2327C10.0363 14.2327 10.0363 14.2327 10.0363 14.2691C10.0316 15.6877 11.0362 16.9092 12.4291 17.1782C11.99 17.2952 11.5303 17.3126 11.0837 17.2291C11.4852 18.4307 12.6023 19.2474 13.8691 19.2655C12.8145 20.0856 11.5178 20.5332 10.1818 20.5382C9.93878 20.538 9.6959 20.5234 9.45459 20.4946C10.8232 21.3604 12.4097 21.8194 14.0292 21.8182C18.6475 21.9026 22.4598 18.2271 22.5442 13.6087C22.545 13.5598 22.5455 13.5109 22.5455 13.4619C22.5455 13.3358 22.5455 13.2097 22.5455 13.0837C23.1155 12.6659 23.6078 12.1515 24.0001 11.5637C23.4541 11.8027 22.8757 11.9596 22.2837 12.0291C22.9063 11.6647 23.3744 11.0854 23.6 10.4001Z" fill="black" fill-opacity="0.54"/>
<path d="M16 0C7.16344 0 0 7.16344 0 16C0 24.8366 7.16344 32 16 32C24.8366 32 32 24.8366 32 16C32 7.16344 24.8366 0 16 0ZM16 30.5454C7.96675 30.5454 1.45456 24.0332 1.45456 16C1.45456 7.96675 7.96675 1.45456 16 1.45456C24.0332 1.45456 30.5454 7.96675 30.5454 16C30.5454 24.0332 24.0332 30.5454 16 30.5454Z" fill="black" fill-opacity="0.54"/>
</svg>
