<svg width="139" height="24" viewBox="0 0 139 24" fill="none" xmlns="http://www.w3.org/2000/svg">
<path d="M6.37382 0.240112H18.1409C19.8313 0.240112 21.4525 0.897532 22.6478 2.06774C23.8432 3.23795 24.5147 4.82509 24.5147 6.48002V17.9998C24.5147 19.5911 23.869 21.1172 22.7196 22.2424C21.5703 23.3676 20.0114 23.9998 18.386 23.9998H6.12867C4.50325 23.9998 2.94439 23.3676 1.79504 22.2424C0.645696 21.1172 0 19.5911 0 17.9998V6.48002C0 4.82509 0.671526 3.23795 1.86685 2.06774C3.06217 0.897532 4.68338 0.240112 6.37382 0.240112Z" fill="#2BB84D"/>
<path d="M6.12867 0.000366211H18.386C20.0114 0.000366211 21.5703 0.632497 22.7196 1.7577C23.869 2.8829 24.5147 4.409 24.5147 6.00028V8.40024C24.5147 9.99152 23.869 11.5176 22.7196 12.6428C21.5703 13.768 20.0114 14.4002 18.386 14.4002H6.12867C4.50325 14.4002 2.94439 13.768 1.79504 12.6428C0.645696 11.5176 0 9.99152 0 8.40024V6.00028C0 4.409 0.645696 2.8829 1.79504 1.7577C2.94439 0.632497 4.50325 0.000366211 6.12867 0.000366211Z" fill="#E2ECE4"/>
<path d="M6.12905 15.5997C6.37148 15.5997 6.60847 15.6701 6.81004 15.802C7.01161 15.9338 7.16871 16.1212 7.26148 16.3405C7.35426 16.5598 7.37853 16.801 7.33124 17.0338C7.28394 17.2666 7.1672 17.4804 6.99578 17.6482C6.82436 17.816 6.60595 17.9303 6.36818 17.9766C6.13041 18.0229 5.88396 17.9992 5.65999 17.9084C5.43601 17.8175 5.24458 17.6637 5.10989 17.4664C4.97521 17.2691 4.90332 17.037 4.90332 16.7997C4.90332 16.4815 5.03246 16.1762 5.26233 15.9512C5.4922 15.7262 5.80397 15.5997 6.12905 15.5997Z" fill="#267836"/>
<path d="M18.3859 15.5997C18.6283 15.5997 18.8653 15.6701 19.0669 15.802C19.2684 15.9338 19.4255 16.1212 19.5183 16.3405C19.6111 16.5598 19.6354 16.801 19.5881 17.0338C19.5408 17.2666 19.424 17.4804 19.2526 17.6482C19.0812 17.816 18.8628 17.9303 18.625 17.9766C18.3872 18.0229 18.1408 17.9992 17.9168 17.9084C17.6928 17.8175 17.5014 17.6637 17.3667 17.4664C17.232 17.2691 17.1602 17.037 17.1602 16.7997C17.1602 16.4815 17.2893 16.1762 17.5192 15.9512C17.749 15.7262 18.0608 15.5997 18.3859 15.5997Z" fill="#267836"/>
<path d="M12.2573 16.7999C14.288 16.7999 15.9345 18.1432 15.9345 19.7999C15.9345 21.4566 14.2882 22.7998 12.2573 22.7998C10.2264 22.7998 8.58008 21.4571 8.58008 19.7999C8.58008 18.1427 10.2264 16.7999 12.2573 16.7999Z" fill="#71D187"/>
<path d="M10.4185 19.2001C10.5397 19.2001 10.6582 19.2353 10.759 19.3012C10.8598 19.3671 10.9384 19.4608 10.9847 19.5705C11.0311 19.6801 11.0433 19.8007 11.0196 19.9171C10.996 20.0335 10.9376 20.1404 10.8519 20.2243C10.7662 20.3082 10.657 20.3654 10.5381 20.3885C10.4192 20.4117 10.296 20.3998 10.184 20.3544C10.072 20.309 9.97629 20.2321 9.90895 20.1334C9.84161 20.0347 9.80566 19.9187 9.80566 19.8001C9.80566 19.6409 9.87024 19.4883 9.98517 19.3758C10.1001 19.2633 10.256 19.2001 10.4185 19.2001Z" fill="#019321"/>
<path d="M14.0963 19.1998C14.2175 19.1998 14.336 19.235 14.4368 19.3009C14.5375 19.3669 14.6161 19.4606 14.6625 19.5702C14.7089 19.6799 14.721 19.8005 14.6974 19.9169C14.6737 20.0333 14.6153 20.1402 14.5296 20.2241C14.4439 20.308 14.3347 20.3651 14.2158 20.3883C14.0969 20.4114 13.9737 20.3996 13.8617 20.3541C13.7497 20.3087 13.654 20.2318 13.5867 20.1332C13.5193 20.0345 13.4834 19.9185 13.4834 19.7998C13.4834 19.6407 13.548 19.4881 13.6629 19.3756C13.7778 19.263 13.9337 19.1998 14.0963 19.1998Z" fill="#019321"/>
<path d="M6.74177 9.59998H17.7734C17.9359 9.59998 18.0918 9.66319 18.2067 9.77571C18.3217 9.88823 18.3862 10.0408 18.3862 10.2C18.3862 10.3591 18.3217 10.5117 18.2067 10.6242C18.0918 10.7367 17.9359 10.8 17.7734 10.8H6.74177C6.57923 10.8 6.42335 10.7367 6.30841 10.6242C6.19348 10.5117 6.12891 10.3591 6.12891 10.2C6.12891 10.0408 6.19348 9.88823 6.30841 9.77571C6.42335 9.66319 6.57923 9.59998 6.74177 9.59998Z" fill="#005F15"/>
<path d="M12.2579 2.40002C13.2515 2.40008 14.2217 2.69572 15.0399 3.24775C15.858 3.79979 16.4856 4.58216 16.8393 5.49122C17.193 6.40027 17.2563 7.39309 17.0207 8.33813C16.785 9.28317 16.2617 10.1358 15.5199 10.7831C14.4094 10.7999 13.5107 10.7999 12.2579 10.7999H9.01542C8.26854 10.155 7.73994 9.30283 7.49996 8.35664C7.25998 7.41045 7.32 6.41515 7.67203 5.50318C8.02406 4.5912 8.65142 3.80579 9.47061 3.25145C10.2898 2.69711 11.262 2.40013 12.2579 2.40002Z" fill="#FECF03"/>
<path d="M13.2382 3.83997V9.83987H11.3996V6.59584C11.4048 6.54749 11.3988 6.49861 11.3822 6.45282C11.3655 6.40703 11.3385 6.3655 11.3031 6.33131C11.2678 6.29713 11.2251 6.27117 11.1781 6.25535C11.1312 6.23953 11.0812 6.23426 11.0318 6.23993H10.1738C10.1738 6.23993 10.1748 5.94077 10.1738 5.87993C11.1527 5.41178 11.9956 4.71031 12.6253 3.83997C12.807 3.84081 13.2382 3.83997 13.2382 3.83997Z" fill="white"/>
<path d="M82.6491 19.4132C82.0517 20.8717 80.966 21.6007 79.5176 21.6007C78.7025 21.6188 77.9095 21.3406 77.2916 20.82L78.1784 19.2749C78.6307 19.5869 78.9929 19.7258 79.4274 19.7258C80.0607 19.7258 80.5673 19.3963 80.893 18.702L81.2188 18.0072L77.2284 8.93056H78.8885C78.8885 8.93056 79.3752 8.88184 79.6085 9.43887C80.2901 11.0654 82.2683 15.9068 82.2683 15.9068C82.2683 15.9068 84.1459 11.0491 84.7497 9.42688C84.9458 8.89888 85.5283 8.93152 85.5283 8.93152H86.9811L82.6491 19.4132ZM72.5876 10.4374C71.0677 10.4374 69.9934 11.306 69.7582 12.7819H75.2571C75.1847 11.2889 74.1624 10.4375 72.5872 10.4375L72.5876 10.4374ZM77.1247 14.302H69.7581C70.0839 15.7258 71.2666 16.6007 72.7868 16.6007C73.2897 16.607 73.7888 16.515 74.255 16.3301C74.7211 16.1452 75.1449 15.8711 75.5015 15.5239L76.6059 16.6527C75.6644 17.6423 74.2893 18.2152 72.6239 18.2152C69.6557 18.2152 67.7008 16.3226 67.7008 13.545C67.7008 10.749 69.7098 8.85748 72.5697 8.84008C75.9544 8.84032 77.3781 10.969 77.1247 14.3022V14.302ZM64.1555 18.0526V12.9849C64.1555 11.5958 63.308 10.7152 61.8601 10.7152C60.2675 10.7326 59.3196 11.7472 59.175 13.1871V18.0525H57.1V9.23463L59.175 8.72776C59.175 8.72776 59.174 10.4657 59.172 10.6565C59.861 9.37107 61.0462 8.84008 62.6747 8.84056C64.9189 8.84056 66.2304 10.1718 66.2304 12.3766V18.0525H64.1555V18.0526ZM50.6357 10.5589C48.8983 10.5589 47.6857 11.774 47.6857 13.5452C47.6857 15.3332 48.8983 16.5483 50.6357 16.5483C52.3552 16.5483 53.5679 15.3332 53.5679 13.5452C53.5674 11.774 52.3547 10.5589 50.6352 10.5589H50.6357ZM50.6357 18.2148C47.6493 18.2148 45.6044 16.3049 45.6044 13.5273C45.6044 10.7314 47.6493 8.83984 50.6357 8.83984C53.6043 8.83984 55.6489 10.732 55.6489 13.5273C55.6487 16.3055 53.6039 18.2154 50.6352 18.2154L50.6357 18.2148ZM44.1309 18.052H42.0555V9.13336C42.0555 9.13336 39.1859 14.5904 38.3206 16.3297C38.2582 16.4709 38.1575 16.5927 38.0295 16.6819C37.9015 16.7712 37.7509 16.8245 37.5942 16.836H37.0755C37.0755 16.836 36.6173 16.8408 36.3491 16.3297C35.4525 14.6173 32.7175 9.13336 32.7175 9.13336V18.0526L30.6426 18.0443V5.8916H32.5433C32.7153 5.90087 32.8815 5.95594 33.0239 6.05087C33.1664 6.1458 33.2796 6.27698 33.3515 6.43028C34.2969 8.23181 37.3576 14.066 37.3576 14.066C37.3576 14.066 40.439 8.22113 41.3515 6.4202C41.4232 6.26891 41.5358 6.1397 41.6771 6.04654C41.8184 5.95337 41.983 5.89979 42.1532 5.8916H44.14L44.1309 18.052Z" fill="#2FAD47"/>
<path d="M128.691 13.289V18.0529H126.616V9.2346L128.691 8.72772L128.68 10.7499C129.332 9.50015 130.49 8.84052 132.011 8.84052V10.7499C130.074 10.6458 128.854 11.7091 128.691 13.289ZM120.532 10.4376C119.012 10.4376 117.928 11.4075 117.693 12.8833H123.192C123.119 11.3901 122.107 10.4376 120.532 10.4376ZM125.059 14.3022H117.693C118.019 15.726 119.211 16.6009 120.731 16.6009C121.234 16.6072 121.733 16.5152 122.2 16.3303C122.666 16.1454 123.089 15.8713 123.446 15.5241L124.55 16.6529C123.609 17.6425 122.234 18.2154 120.568 18.2154C117.6 18.2154 115.645 16.3228 115.645 13.5452C115.645 10.7492 117.654 8.85768 120.514 8.84028C123.899 8.8404 125.313 10.9691 125.059 14.3022ZM111.883 18.1542H109.704L106.072 8.93088H107.629C107.797 8.92159 107.962 8.96763 108.1 9.06162C108.238 9.15561 108.339 9.29212 108.388 9.44927C109.009 11.1327 110.845 16.2283 110.845 16.2283C110.845 16.2283 112.727 11.0821 113.325 9.42324C113.37 9.27042 113.469 9.13783 113.603 9.04811C113.737 8.95839 113.899 8.91708 114.061 8.93124H115.618L111.883 18.1542ZM100.947 10.5594C99.2093 10.5594 97.9966 11.7745 97.9966 13.5457C97.9966 15.3336 99.2093 16.5487 100.947 16.5487C102.666 16.5487 103.879 15.3336 103.879 13.5457C103.879 11.7741 102.666 10.559 100.947 10.559L100.947 10.5594ZM100.947 18.2153C97.9607 18.2153 95.9154 16.3054 95.9154 13.5278C95.9154 10.7318 97.9607 8.84028 100.947 8.84028C103.915 8.84028 105.96 10.7324 105.96 13.5278C105.96 16.3056 103.915 18.2155 100.947 18.2155L100.947 18.2153ZM88.4342 18.0524V5.99092H90.0942C90.0942 5.99092 90.6149 5.88977 90.6129 6.4978C90.6061 8.61336 90.6129 16.3296 90.6129 16.3296H94.9709C95.0404 16.3239 95.1103 16.333 95.1758 16.3564C95.2413 16.3798 95.3008 16.4169 95.3502 16.4651C95.3995 16.5133 95.4376 16.5715 95.4617 16.6355C95.4858 16.6996 95.4953 16.768 95.4897 16.836V18.0525H88.4341L88.4342 18.0524Z" fill="#2FAD47"/>
</svg>
