<svg width="96" height="96" viewBox="0 0 96 96" fill="none" xmlns="http://www.w3.org/2000/svg">
<path d="M43.6371 37.0907V41.4543H39.2734V47.9998H43.6371V67.6361H52.3643V47.9998H58.168L58.9098 41.4543H52.3643V37.6361C52.3643 35.8689 52.5389 34.9307 55.2661 34.9307H58.9098V28.3633H53.0626C46.0808 28.3635 43.6371 31.6361 43.6371 37.0907Z" fill="black" fill-opacity="0.54"/>
<path d="M48 0C21.4903 0 0 21.4903 0 48C0 74.5097 21.4903 96 48 96C74.5097 96 96 74.5097 96 48C96 21.4903 74.5097 0 48 0ZM48 91.6363C23.9002 91.6363 4.36369 72.0997 4.36369 48C4.36369 23.9002 23.9002 4.36369 48 4.36369C72.0997 4.36369 91.6363 23.9002 91.6363 48C91.6363 72.0997 72.0997 91.6363 48 91.6363Z" fill="black" fill-opacity="0.54"/>
</svg>
