<svg width="32" height="32" viewBox="0 0 32 32" fill="none" xmlns="http://www.w3.org/2000/svg">
<path d="M16 0C7.16344 0 0 7.16344 0 16C0 24.8366 7.16344 32 16 32C24.8366 32 32 24.8366 32 16C32 7.16344 24.8366 0 16 0ZM16 30.5454C7.96675 30.5454 1.45456 24.0332 1.45456 16C1.45456 7.96675 7.96675 1.45456 16 1.45456C24.0332 1.45456 30.5454 7.96675 30.5454 16C30.5454 24.0332 24.0332 30.5454 16 30.5454Z" fill="black" fill-opacity="0.54"/>
<path d="M20.3639 8.72705H11.6366C10.03 8.72705 8.72754 10.0295 8.72754 11.6361V20.3634C8.72754 21.97 10.03 23.2724 11.6366 23.2724H20.3639C21.9705 23.2724 23.2729 21.97 23.2729 20.3634V11.6362C23.273 10.0295 21.9705 8.72705 20.3639 8.72705ZM18.9093 10.9089H21.0911V13.0907H18.9093V10.9089ZM16.0002 13.0907C17.6069 13.0907 18.9093 14.3932 18.9093 15.9998C18.9093 17.6064 17.6069 18.9089 16.0002 18.9089C14.3936 18.9089 13.0912 17.6064 13.0912 15.9998C13.0912 14.3932 14.3936 13.0907 16.0002 13.0907ZM21.8184 20.3634C21.8184 21.1667 21.1672 21.818 20.3639 21.818H11.6366C10.8333 21.818 10.182 21.1667 10.182 20.3634V15.2725H11.7093C11.2725 17.6426 12.8397 19.9179 15.2098 20.3547C17.5799 20.7915 19.8552 19.2243 20.292 16.8542C20.344 16.5725 20.368 16.2863 20.3639 15.9998C20.3602 15.7557 20.3359 15.5125 20.2911 15.2725H21.8184V20.3634H21.8184Z" fill="black" fill-opacity="0.54"/>
</svg>
