<svg width="24" height="24" viewBox="0 0 24 24" fill="none" xmlns="http://www.w3.org/2000/svg">
<path d="M12 0C5.40891 0 0 5.40891 0 12C0 18.5911 5.40891 24 12 24C18.5911 24 24 18.5911 24 12C24 5.40891 18.5911 0 12 0ZM12 19.7344C11.2248 19.7344 10.5938 19.1033 10.5938 18.3281C10.5938 17.5529 11.2248 16.9219 12 16.9219C12.7752 16.9219 13.4062 17.5529 13.4062 18.3281C13.4062 19.1033 12.7752 19.7344 12 19.7344ZM14.4918 11.8874C13.7915 12.4024 13.4062 13.0602 13.4062 13.7393V15.5156H10.5938V13.7393C10.5938 12.1634 11.4081 10.6617 12.8281 9.62006C13.1955 9.35091 13.4062 8.93686 13.4062 8.48438C13.4062 7.70916 12.7752 7.07812 12 7.07812C11.2248 7.07812 10.5938 7.70916 10.5938 8.48438H7.78125C7.78125 6.15802 9.67364 4.26562 12 4.26562C14.3264 4.26562 16.2188 6.15802 16.2188 8.48438C16.2188 9.82195 15.5733 11.0943 14.4918 11.8874Z" fill="white"/>
</svg>
